<svg xmlns="http://www.w3.org/2000/svg" viewBox="0 0 160 160" width="160" height="160">
  <defs>
    <linearGradient id="bg" x1="0" y1="0" x2="0" y2="1">
      <stop offset="0%" stop-color="#8aa9ff"/>
      <stop offset="55%" stop-color="#a99bff"/>
      <stop offset="100%" stop-color="#c8b6ff"/>
    </linearGradient>
    <radialGradient id="sun" cx="50%" cy="50%" r="50%">
      <stop offset="0%" stop-color="#fff7df"/>
      <stop offset="60%" stop-color="#ffd166"/>
      <stop offset="100%" stop-color="#ffd166" stop-opacity="0"/>
    </radialGradient>
    <linearGradient id="body" x1="0" y1="0" x2="0" y2="1">
      <stop offset="0%" stop-color="#ffd98a"/>
      <stop offset="100%" stop-color="#f6b85e"/>
    </linearGradient>
  </defs>
  <rect width="160" height="160" rx="38" fill="url(#bg)"/>
  <circle cx="118" cy="44" r="46" fill="url(#sun)"/>
  <circle cx="118" cy="44" r="20" fill="#ffe27a"/>
  <ellipse cx="52" cy="60" rx="30" ry="18" fill="#ffffff" opacity="0.92"/>
  <ellipse cx="74" cy="54" rx="22" ry="18" fill="#ffffff" opacity="0.92"/>
  <ellipse cx="34" cy="56" rx="18" ry="14" fill="#ffffff" opacity="0.92"/>
  <rect x="24" y="58" width="66" height="18" rx="9" fill="#ffffff" opacity="0.92"/>
  <!-- giraffe -->
  <g transform="translate(56 70)">
    <line x1="10" y1="14" x2="8" y2="2" stroke="#f6b85e" stroke-width="5" stroke-linecap="round"/>
    <circle cx="7" cy="1" r="6" fill="#c98b3f"/>
    <line x1="34" y1="14" x2="36" y2="2" stroke="#f6b85e" stroke-width="5" stroke-linecap="round"/>
    <circle cx="37" cy="1" r="6" fill="#c98b3f"/>
    <ellipse cx="22" cy="30" rx="28" ry="26" fill="url(#body)"/>
    <ellipse cx="22" cy="44" rx="19" ry="14" fill="#fff0d6"/>
    <ellipse cx="14" cy="44" rx="2.6" ry="3.6" fill="#9c6b32"/>
    <ellipse cx="30" cy="44" rx="2.6" ry="3.6" fill="#9c6b32"/>
    <circle cx="11" cy="26" r="6" fill="#3a2e22"/>
    <circle cx="33" cy="26" r="6" fill="#3a2e22"/>
    <circle cx="9.5" cy="24" r="2" fill="#fff"/>
    <circle cx="31.5" cy="24" r="2" fill="#fff"/>
    <path d="M13 50 Q22 57 31 50" stroke="#c4773a" stroke-width="2.6" fill="none" stroke-linecap="round"/>
    <circle cx="2" cy="36" r="8" fill="#ffb0c4" opacity="0.55"/>
    <circle cx="42" cy="36" r="8" fill="#ffb0c4" opacity="0.55"/>
  </g>
</svg>
